# xmcd
#
# Track frame offsets:
#	150
#	30190
#	66726
#	93864
#	122295
#	150401
#	210589
#	244721
#	281106
#	296064
#
# Disc length: 4327 seconds
#
# Revision: 0
# Processed by: cddbd v1.5.2PL0 Copyright (c) Steve Scherf et al.
# Submitted via: audiograbber 1.83.01
#
DISCID=8610e50a
DTITLE=Grateful Dead - 93-06-08 The Palace, Auburn Hills MI
DYEAR=1900
DGENRE=
TTITLE0=Picasso Moon
TTITLE1=Althea
TTITLE2=Queen Jane Approximately
TTITLE3=It Must Have Been The Roses
TTITLE4=It's All Over Now
TTITLE5=Birdsong
TTITLE6=Truckin'
TTITLE7=New Speedway Boogie
TTITLE8=That Would Be Something
TTITLE9=Long Way To Go Home
EXTD=
EXTT0=
EXTT1=
EXTT2=
EXTT3=
EXTT4=
EXTT5=
EXTT6=
EXTT7=
EXTT8=
EXTT9=
PLAYORDER=
